<svg width="512" height="512" viewBox="0 0 48 48" xmlns="http://www.w3.org/2000/svg">
  <defs>
    <!-- 渐变定义 - 从中心白色渐变到边缘颜色 -->
    <radialGradient id="orangeGradient" cx="50%" cy="100%" r="100%">
      <stop offset="0%" style="stop-color:#ffffff;stop-opacity:1" />
      <stop offset="100%" style="stop-color:#ea580c;stop-opacity:1" />
    </radialGradient>
    <radialGradient id="blueGradient" cx="100%" cy="0%" r="100%">
      <stop offset="0%" style="stop-color:#ffffff;stop-opacity:1" />
      <stop offset="100%" style="stop-color:#3b82f6;stop-opacity:1" />
    </radialGradient>
    <radialGradient id="greenGradient" cx="0%" cy="0%" r="100%">
      <stop offset="0%" style="stop-color:#ffffff;stop-opacity:1" />
      <stop offset="100%" style="stop-color:#10b981;stop-opacity:1" />
    </radialGradient>
  </defs>

  <!-- 背景圆形 -->
  <circle cx="24" cy="24" r="24" fill="url(#orangeGradient)" opacity="0.05"/>

  <!-- 中心点 -->
  <circle cx="24" cy="24" r="1.5" fill="#1e293b"/>

  <!-- 上半部分大三角形 - 橙色 -->
  <polygon points="24,24 14,14 34,14" fill="url(#orangeGradient)" opacity="0.8"/>

  <!-- 左下三角形 - 蓝色 -->
  <polygon points="24,24 12,24 12,36" fill="url(#blueGradient)" opacity="0.8"/>

  <!-- 右下三角形 - 绿色 -->
  <polygon points="24,24 36,36 24,36" fill="url(#greenGradient)" opacity="0.8"/>

  <!-- 装饰性线条 -->
  <line x1="24" y1="24" x2="14" y2="14" stroke="#ea580c" stroke-width="0.5" opacity="0.4"/>
  <line x1="24" y1="24" x2="34" y2="14" stroke="#ea580c" stroke-width="0.5" opacity="0.4"/>
  <line x1="24" y1="24" x2="12" y2="24" stroke="#3b82f6" stroke-width="0.5" opacity="0.4"/>
  <line x1="24" y1="24" x2="12" y2="36" stroke="#3b82f6" stroke-width="0.5" opacity="0.4"/>
  <line x1="24" y1="24" x2="36" y2="36" stroke="#10b981" stroke-width="0.5" opacity="0.4"/>
  <line x1="24" y1="24" x2="24" y2="36" stroke="#10b981" stroke-width="0.5" opacity="0.4"/>

  <!-- 外圈装饰 -->
  <circle cx="24" cy="24" r="22" fill="none" stroke="#ea580c" stroke-width="0.5" opacity="0.3"/>
</svg>