<svg xmlns="http://www.w3.org/2000/svg" viewBox="0 0 1200 500" width="1200" height="500" font-family="'Noto Sans SC','PingFang SC','Hiragino Sans GB','Microsoft YaHei',sans-serif">

<rect width="1200" height="500" fill="#101014"/>
<g fill="#1c1c24">
<rect x="16" y="16" width="8" height="8"/><rect x="16" y="48" width="8" height="8"/><rect x="16" y="80" width="8" height="8"/><rect x="16" y="112" width="8" height="8"/><rect x="16" y="144" width="8" height="8"/><rect x="16" y="176" width="8" height="8"/><rect x="16" y="208" width="8" height="8"/><rect x="16" y="240" width="8" height="8"/><rect x="16" y="272" width="8" height="8"/><rect x="16" y="304" width="8" height="8"/><rect x="16" y="336" width="8" height="8"/><rect x="16" y="368" width="8" height="8"/><rect x="16" y="400" width="8" height="8"/><rect x="16" y="432" width="8" height="8"/><rect x="16" y="464" width="8" height="8"/><rect x="48" y="16" width="8" height="8"/><rect x="48" y="48" width="8" height="8"/><rect x="48" y="80" width="8" height="8"/><rect x="48" y="112" width="8" height="8"/><rect x="48" y="144" width="8" height="8"/><rect x="48" y="176" width="8" height="8"/><rect x="48" y="208" width="8" height="8"/><rect x="48" y="240" width="8" height="8"/><rect x="48" y="272" width="8" height="8"/><rect x="48" y="304" width="8" height="8"/><rect x="48" y="336" width="8" height="8"/><rect x="48" y="368" width="8" height="8"/><rect x="48" y="400" width="8" height="8"/><rect x="48" y="432" width="8" height="8"/><rect x="48" y="464" width="8" height="8"/><rect x="80" y="16" width="8" height="8"/><rect x="80" y="48" width="8" height="8"/><rect x="80" y="80" width="8" height="8"/><rect x="80" y="112" width="8" height="8"/><rect x="80" y="144" width="8" height="8"/><rect x="80" y="176" width="8" height="8"/><rect x="80" y="208" width="8" height="8"/><rect x="80" y="240" width="8" height="8"/><rect x="80" y="272" width="8" height="8"/><rect x="80" y="304" width="8" height="8"/><rect x="80" y="336" width="8" height="8"/><rect x="80" y="368" width="8" height="8"/><rect x="80" y="400" width="8" height="8"/><rect x="80" y="432" width="8" height="8"/><rect x="80" y="464" width="8" height="8"/><rect x="112" y="16" width="8" height="8"/><rect x="112" y="48" width="8" height="8"/><rect x="112" y="80" width="8" height="8"/><rect x="112" y="112" width="8" height="8"/><rect x="112" y="144" width="8" height="8"/><rect x="112" y="176" width="8" height="8"/><rect x="112" y="208" width="8" height="8"/><rect x="112" y="240" width="8" height="8"/><rect x="112" y="272" width="8" height="8"/><rect x="112" y="304" width="8" height="8"/><rect x="112" y="336" width="8" height="8"/><rect x="112" y="368" width="8" height="8"/><rect x="112" y="400" width="8" height="8"/><rect x="112" y="432" width="8" height="8"/><rect x="112" y="464" width="8" height="8"/><rect x="144" y="16" width="8" height="8"/><rect x="144" y="48" width="8" height="8"/><rect x="144" y="80" width="8" height="8"/><rect x="144" y="112" width="8" height="8"/><rect x="144" y="144" width="8" height="8"/><rect x="144" y="176" width="8" height="8"/><rect x="144" y="208" width="8" height="8"/><rect x="144" y="240" width="8" height="8"/><rect x="144" y="272" width="8" height="8"/><rect x="144" y="304" width="8" height="8"/><rect x="144" y="336" width="8" height="8"/><rect x="144" y="368" width="8" height="8"/><rect x="144" y="400" width="8" height="8"/><rect x="144" y="432" width="8" height="8"/><rect x="144" y="464" width="8" height="8"/><rect x="176" y="16" width="8" height="8"/><rect x="176" y="48" width="8" height="8"/><rect x="176" y="80" width="8" height="8"/><rect x="176" y="112" width="8" height="8"/><rect x="176" y="144" width="8" height="8"/><rect x="176" y="176" width="8" height="8"/><rect x="176" y="208" width="8" height="8"/><rect x="176" y="240" width="8" height="8"/><rect x="176" y="272" width="8" height="8"/><rect x="176" y="304" width="8" height="8"/><rect x="176" y="336" width="8" height="8"/><rect x="176" y="368" width="8" height="8"/><rect x="176" y="400" width="8" height="8"/><rect x="176" y="432" width="8" height="8"/><rect x="176" y="464" width="8" height="8"/><rect x="208" y="16" width="8" height="8"/><rect x="208" y="48" width="8" height="8"/><rect x="208" y="80" width="8" height="8"/><rect x="208" y="112" width="8" height="8"/><rect x="208" y="144" width="8" height="8"/><rect x="208" y="176" width="8" height="8"/><rect x="208" y="208" width="8" height="8"/><rect x="208" y="240" width="8" height="8"/><rect x="208" y="272" width="8" height="8"/><rect x="208" y="304" width="8" height="8"/><rect x="208" y="336" width="8" height="8"/><rect x="208" y="368" width="8" height="8"/><rect x="208" y="400" width="8" height="8"/><rect x="208" y="432" width="8" height="8"/><rect x="208" y="464" width="8" height="8"/><rect x="240" y="16" width="8" height="8"/><rect x="240" y="48" width="8" height="8"/><rect x="240" y="80" width="8" height="8"/><rect x="240" y="112" width="8" height="8"/><rect x="240" y="144" width="8" height="8"/><rect x="240" y="176" width="8" height="8"/><rect x="240" y="208" width="8" height="8"/><rect x="240" y="240" width="8" height="8"/><rect x="240" y="272" width="8" height="8"/><rect x="240" y="304" width="8" height="8"/><rect x="240" y="336" width="8" height="8"/><rect x="240" y="368" width="8" height="8"/><rect x="240" y="400" width="8" height="8"/><rect x="240" y="432" width="8" height="8"/><rect x="240" y="464" width="8" height="8"/><rect x="272" y="16" width="8" height="8"/><rect x="272" y="48" width="8" height="8"/><rect x="272" y="80" width="8" height="8"/><rect x="272" y="112" width="8" height="8"/><rect x="272" y="144" width="8" height="8"/><rect x="272" y="176" width="8" height="8"/><rect x="272" y="208" width="8" height="8"/><rect x="272" y="240" width="8" height="8"/><rect x="272" y="272" width="8" height="8"/><rect x="272" y="304" width="8" height="8"/><rect x="272" y="336" width="8" height="8"/><rect x="272" y="368" width="8" height="8"/><rect x="272" y="400" width="8" height="8"/><rect x="272" y="432" width="8" height="8"/><rect x="272" y="464" width="8" height="8"/><rect x="304" y="16" width="8" height="8"/><rect x="304" y="48" width="8" height="8"/><rect x="304" y="80" width="8" height="8"/><rect x="304" y="112" width="8" height="8"/><rect x="304" y="144" width="8" height="8"/><rect x="304" y="176" width="8" height="8"/><rect x="304" y="208" width="8" height="8"/><rect x="304" y="240" width="8" height="8"/><rect x="304" y="272" width="8" height="8"/><rect x="304" y="304" width="8" height="8"/><rect x="304" y="336" width="8" height="8"/><rect x="304" y="368" width="8" height="8"/><rect x="304" y="400" width="8" height="8"/><rect x="304" y="432" width="8" height="8"/><rect x="304" y="464" width="8" height="8"/><rect x="336" y="16" width="8" height="8"/><rect x="336" y="48" width="8" height="8"/><rect x="336" y="80" width="8" height="8"/><rect x="336" y="112" width="8" height="8"/><rect x="336" y="144" width="8" height="8"/><rect x="336" y="176" width="8" height="8"/><rect x="336" y="208" width="8" height="8"/><rect x="336" y="240" width="8" height="8"/><rect x="336" y="272" width="8" height="8"/><rect x="336" y="304" width="8" height="8"/><rect x="336" y="336" width="8" height="8"/><rect x="336" y="368" width="8" height="8"/><rect x="336" y="400" width="8" height="8"/><rect x="336" y="432" width="8" height="8"/><rect x="336" y="464" width="8" height="8"/><rect x="368" y="16" width="8" height="8"/><rect x="368" y="48" width="8" height="8"/><rect x="368" y="80" width="8" height="8"/><rect x="368" y="112" width="8" height="8"/><rect x="368" y="144" width="8" height="8"/><rect x="368" y="176" width="8" height="8"/><rect x="368" y="208" width="8" height="8"/><rect x="368" y="240" width="8" height="8"/><rect x="368" y="272" width="8" height="8"/><rect x="368" y="304" width="8" height="8"/><rect x="368" y="336" width="8" height="8"/><rect x="368" y="368" width="8" height="8"/><rect x="368" y="400" width="8" height="8"/><rect x="368" y="432" width="8" height="8"/><rect x="368" y="464" width="8" height="8"/><rect x="400" y="16" width="8" height="8"/><rect x="400" y="48" width="8" height="8"/><rect x="400" y="80" width="8" height="8"/><rect x="400" y="112" width="8" height="8"/><rect x="400" y="144" width="8" height="8"/><rect x="400" y="176" width="8" height="8"/><rect x="400" y="208" width="8" height="8"/><rect x="400" y="240" width="8" height="8"/><rect x="400" y="272" width="8" height="8"/><rect x="400" y="304" width="8" height="8"/><rect x="400" y="336" width="8" height="8"/><rect x="400" y="368" width="8" height="8"/><rect x="400" y="400" width="8" height="8"/><rect x="400" y="432" width="8" height="8"/><rect x="400" y="464" width="8" height="8"/><rect x="432" y="16" width="8" height="8"/><rect x="432" y="48" width="8" height="8"/><rect x="432" y="80" width="8" height="8"/><rect x="432" y="112" width="8" height="8"/><rect x="432" y="144" width="8" height="8"/><rect x="432" y="176" width="8" height="8"/><rect x="432" y="208" width="8" height="8"/><rect x="432" y="240" width="8" height="8"/><rect x="432" y="272" width="8" height="8"/><rect x="432" y="304" width="8" height="8"/><rect x="432" y="336" width="8" height="8"/><rect x="432" y="368" width="8" height="8"/><rect x="432" y="400" width="8" height="8"/><rect x="432" y="432" width="8" height="8"/><rect x="432" y="464" width="8" height="8"/><rect x="464" y="16" width="8" height="8"/><rect x="464" y="48" width="8" height="8"/><rect x="464" y="80" width="8" height="8"/><rect x="464" y="112" width="8" height="8"/><rect x="464" y="144" width="8" height="8"/><rect x="464" y="176" width="8" height="8"/><rect x="464" y="208" width="8" height="8"/><rect x="464" y="240" width="8" height="8"/><rect x="464" y="272" width="8" height="8"/><rect x="464" y="304" width="8" height="8"/><rect x="464" y="336" width="8" height="8"/><rect x="464" y="368" width="8" height="8"/><rect x="464" y="400" width="8" height="8"/><rect x="464" y="432" width="8" height="8"/><rect x="464" y="464" width="8" height="8"/><rect x="496" y="16" width="8" height="8"/><rect x="496" y="48" width="8" height="8"/><rect x="496" y="80" width="8" height="8"/><rect x="496" y="112" width="8" height="8"/><rect x="496" y="144" width="8" height="8"/><rect x="496" y="176" width="8" height="8"/><rect x="496" y="208" width="8" height="8"/><rect x="496" y="240" width="8" height="8"/><rect x="496" y="272" width="8" height="8"/><rect x="496" y="304" width="8" height="8"/><rect x="496" y="336" width="8" height="8"/><rect x="496" y="368" width="8" height="8"/><rect x="496" y="400" width="8" height="8"/><rect x="496" y="432" width="8" height="8"/><rect x="496" y="464" width="8" height="8"/><rect x="528" y="16" width="8" height="8"/><rect x="528" y="48" width="8" height="8"/><rect x="528" y="80" width="8" height="8"/><rect x="528" y="112" width="8" height="8"/><rect x="528" y="144" width="8" height="8"/><rect x="528" y="176" width="8" height="8"/><rect x="528" y="208" width="8" height="8"/><rect x="528" y="240" width="8" height="8"/><rect x="528" y="272" width="8" height="8"/><rect x="528" y="304" width="8" height="8"/><rect x="528" y="336" width="8" height="8"/><rect x="528" y="368" width="8" height="8"/><rect x="528" y="400" width="8" height="8"/><rect x="528" y="432" width="8" height="8"/><rect x="528" y="464" width="8" height="8"/><rect x="560" y="16" width="8" height="8"/><rect x="560" y="48" width="8" height="8"/><rect x="560" y="80" width="8" height="8"/><rect x="560" y="112" width="8" height="8"/><rect x="560" y="144" width="8" height="8"/><rect x="560" y="176" width="8" height="8"/><rect x="560" y="208" width="8" height="8"/><rect x="560" y="240" width="8" height="8"/><rect x="560" y="272" width="8" height="8"/><rect x="560" y="304" width="8" height="8"/><rect x="560" y="336" width="8" height="8"/><rect x="560" y="368" width="8" height="8"/><rect x="560" y="400" width="8" height="8"/><rect x="560" y="432" width="8" height="8"/><rect x="560" y="464" width="8" height="8"/><rect x="592" y="16" width="8" height="8"/><rect x="592" y="48" width="8" height="8"/><rect x="592" y="80" width="8" height="8"/><rect x="592" y="112" width="8" height="8"/><rect x="592" y="144" width="8" height="8"/><rect x="592" y="176" width="8" height="8"/><rect x="592" y="208" width="8" height="8"/><rect x="592" y="240" width="8" height="8"/><rect x="592" y="272" width="8" height="8"/><rect x="592" y="304" width="8" height="8"/><rect x="592" y="336" width="8" height="8"/><rect x="592" y="368" width="8" height="8"/><rect x="592" y="400" width="8" height="8"/><rect x="592" y="432" width="8" height="8"/><rect x="592" y="464" width="8" height="8"/><rect x="624" y="16" width="8" height="8"/><rect x="624" y="48" width="8" height="8"/><rect x="624" y="80" width="8" height="8"/><rect x="624" y="112" width="8" height="8"/><rect x="624" y="144" width="8" height="8"/><rect x="624" y="176" width="8" height="8"/><rect x="624" y="208" width="8" height="8"/><rect x="624" y="240" width="8" height="8"/><rect x="624" y="272" width="8" height="8"/><rect x="624" y="304" width="8" height="8"/><rect x="624" y="336" width="8" height="8"/><rect x="624" y="368" width="8" height="8"/><rect x="624" y="400" width="8" height="8"/><rect x="624" y="432" width="8" height="8"/><rect x="624" y="464" width="8" height="8"/><rect x="656" y="16" width="8" height="8"/><rect x="656" y="48" width="8" height="8"/><rect x="656" y="80" width="8" height="8"/><rect x="656" y="112" width="8" height="8"/><rect x="656" y="144" width="8" height="8"/><rect x="656" y="176" width="8" height="8"/><rect x="656" y="208" width="8" height="8"/><rect x="656" y="240" width="8" height="8"/><rect x="656" y="272" width="8" height="8"/><rect x="656" y="304" width="8" height="8"/><rect x="656" y="336" width="8" height="8"/><rect x="656" y="368" width="8" height="8"/><rect x="656" y="400" width="8" height="8"/><rect x="656" y="432" width="8" height="8"/><rect x="656" y="464" width="8" height="8"/><rect x="688" y="16" width="8" height="8"/><rect x="688" y="48" width="8" height="8"/><rect x="688" y="80" width="8" height="8"/><rect x="688" y="112" width="8" height="8"/><rect x="688" y="144" width="8" height="8"/><rect x="688" y="176" width="8" height="8"/><rect x="688" y="208" width="8" height="8"/><rect x="688" y="240" width="8" height="8"/><rect x="688" y="272" width="8" height="8"/><rect x="688" y="304" width="8" height="8"/><rect x="688" y="336" width="8" height="8"/><rect x="688" y="368" width="8" height="8"/><rect x="688" y="400" width="8" height="8"/><rect x="688" y="432" width="8" height="8"/><rect x="688" y="464" width="8" height="8"/><rect x="720" y="16" width="8" height="8"/><rect x="720" y="48" width="8" height="8"/><rect x="720" y="80" width="8" height="8"/><rect x="720" y="112" width="8" height="8"/><rect x="720" y="144" width="8" height="8"/><rect x="720" y="176" width="8" height="8"/><rect x="720" y="208" width="8" height="8"/><rect x="720" y="240" width="8" height="8"/><rect x="720" y="272" width="8" height="8"/><rect x="720" y="304" width="8" height="8"/><rect x="720" y="336" width="8" height="8"/><rect x="720" y="368" width="8" height="8"/><rect x="720" y="400" width="8" height="8"/><rect x="720" y="432" width="8" height="8"/><rect x="720" y="464" width="8" height="8"/><rect x="752" y="16" width="8" height="8"/><rect x="752" y="48" width="8" height="8"/><rect x="752" y="80" width="8" height="8"/><rect x="752" y="112" width="8" height="8"/><rect x="752" y="144" width="8" height="8"/><rect x="752" y="176" width="8" height="8"/><rect x="752" y="208" width="8" height="8"/><rect x="752" y="240" width="8" height="8"/><rect x="752" y="272" width="8" height="8"/><rect x="752" y="304" width="8" height="8"/><rect x="752" y="336" width="8" height="8"/><rect x="752" y="368" width="8" height="8"/><rect x="752" y="400" width="8" height="8"/><rect x="752" y="432" width="8" height="8"/><rect x="752" y="464" width="8" height="8"/><rect x="784" y="16" width="8" height="8"/><rect x="784" y="48" width="8" height="8"/><rect x="784" y="80" width="8" height="8"/><rect x="784" y="112" width="8" height="8"/><rect x="784" y="144" width="8" height="8"/><rect x="784" y="176" width="8" height="8"/><rect x="784" y="208" width="8" height="8"/><rect x="784" y="240" width="8" height="8"/><rect x="784" y="272" width="8" height="8"/><rect x="784" y="304" width="8" height="8"/><rect x="784" y="336" width="8" height="8"/><rect x="784" y="368" width="8" height="8"/><rect x="784" y="400" width="8" height="8"/><rect x="784" y="432" width="8" height="8"/><rect x="784" y="464" width="8" height="8"/><rect x="816" y="16" width="8" height="8"/><rect x="816" y="48" width="8" height="8"/><rect x="816" y="80" width="8" height="8"/><rect x="816" y="112" width="8" height="8"/><rect x="816" y="144" width="8" height="8"/><rect x="816" y="176" width="8" height="8"/><rect x="816" y="208" width="8" height="8"/><rect x="816" y="240" width="8" height="8"/><rect x="816" y="272" width="8" height="8"/><rect x="816" y="304" width="8" height="8"/><rect x="816" y="336" width="8" height="8"/><rect x="816" y="368" width="8" height="8"/><rect x="816" y="400" width="8" height="8"/><rect x="816" y="432" width="8" height="8"/><rect x="816" y="464" width="8" height="8"/><rect x="848" y="16" width="8" height="8"/><rect x="848" y="48" width="8" height="8"/><rect x="848" y="80" width="8" height="8"/><rect x="848" y="112" width="8" height="8"/><rect x="848" y="144" width="8" height="8"/><rect x="848" y="176" width="8" height="8"/><rect x="848" y="208" width="8" height="8"/><rect x="848" y="240" width="8" height="8"/><rect x="848" y="272" width="8" height="8"/><rect x="848" y="304" width="8" height="8"/><rect x="848" y="336" width="8" height="8"/><rect x="848" y="368" width="8" height="8"/><rect x="848" y="400" width="8" height="8"/><rect x="848" y="432" width="8" height="8"/><rect x="848" y="464" width="8" height="8"/><rect x="880" y="16" width="8" height="8"/><rect x="880" y="48" width="8" height="8"/><rect x="880" y="80" width="8" height="8"/><rect x="880" y="112" width="8" height="8"/><rect x="880" y="144" width="8" height="8"/><rect x="880" y="176" width="8" height="8"/><rect x="880" y="208" width="8" height="8"/><rect x="880" y="240" width="8" height="8"/><rect x="880" y="272" width="8" height="8"/><rect x="880" y="304" width="8" height="8"/><rect x="880" y="336" width="8" height="8"/><rect x="880" y="368" width="8" height="8"/><rect x="880" y="400" width="8" height="8"/><rect x="880" y="432" width="8" height="8"/><rect x="880" y="464" width="8" height="8"/><rect x="912" y="16" width="8" height="8"/><rect x="912" y="48" width="8" height="8"/><rect x="912" y="80" width="8" height="8"/><rect x="912" y="112" width="8" height="8"/><rect x="912" y="144" width="8" height="8"/><rect x="912" y="176" width="8" height="8"/><rect x="912" y="208" width="8" height="8"/><rect x="912" y="240" width="8" height="8"/><rect x="912" y="272" width="8" height="8"/><rect x="912" y="304" width="8" height="8"/><rect x="912" y="336" width="8" height="8"/><rect x="912" y="368" width="8" height="8"/><rect x="912" y="400" width="8" height="8"/><rect x="912" y="432" width="8" height="8"/><rect x="912" y="464" width="8" height="8"/><rect x="944" y="16" width="8" height="8"/><rect x="944" y="48" width="8" height="8"/><rect x="944" y="80" width="8" height="8"/><rect x="944" y="112" width="8" height="8"/><rect x="944" y="144" width="8" height="8"/><rect x="944" y="176" width="8" height="8"/><rect x="944" y="208" width="8" height="8"/><rect x="944" y="240" width="8" height="8"/><rect x="944" y="272" width="8" height="8"/><rect x="944" y="304" width="8" height="8"/><rect x="944" y="336" width="8" height="8"/><rect x="944" y="368" width="8" height="8"/><rect x="944" y="400" width="8" height="8"/><rect x="944" y="432" width="8" height="8"/><rect x="944" y="464" width="8" height="8"/><rect x="976" y="16" width="8" height="8"/><rect x="976" y="48" width="8" height="8"/><rect x="976" y="80" width="8" height="8"/><rect x="976" y="112" width="8" height="8"/><rect x="976" y="144" width="8" height="8"/><rect x="976" y="176" width="8" height="8"/><rect x="976" y="208" width="8" height="8"/><rect x="976" y="240" width="8" height="8"/><rect x="976" y="272" width="8" height="8"/><rect x="976" y="304" width="8" height="8"/><rect x="976" y="336" width="8" height="8"/><rect x="976" y="368" width="8" height="8"/><rect x="976" y="400" width="8" height="8"/><rect x="976" y="432" width="8" height="8"/><rect x="976" y="464" width="8" height="8"/><rect x="1008" y="16" width="8" height="8"/><rect x="1008" y="48" width="8" height="8"/><rect x="1008" y="80" width="8" height="8"/><rect x="1008" y="112" width="8" height="8"/><rect x="1008" y="144" width="8" height="8"/><rect x="1008" y="176" width="8" height="8"/><rect x="1008" y="208" width="8" height="8"/><rect x="1008" y="240" width="8" height="8"/><rect x="1008" y="272" width="8" height="8"/><rect x="1008" y="304" width="8" height="8"/><rect x="1008" y="336" width="8" height="8"/><rect x="1008" y="368" width="8" height="8"/><rect x="1008" y="400" width="8" height="8"/><rect x="1008" y="432" width="8" height="8"/><rect x="1008" y="464" width="8" height="8"/><rect x="1040" y="16" width="8" height="8"/><rect x="1040" y="48" width="8" height="8"/><rect x="1040" y="80" width="8" height="8"/><rect x="1040" y="112" width="8" height="8"/><rect x="1040" y="144" width="8" height="8"/><rect x="1040" y="176" width="8" height="8"/><rect x="1040" y="208" width="8" height="8"/><rect x="1040" y="240" width="8" height="8"/><rect x="1040" y="272" width="8" height="8"/><rect x="1040" y="304" width="8" height="8"/><rect x="1040" y="336" width="8" height="8"/><rect x="1040" y="368" width="8" height="8"/><rect x="1040" y="400" width="8" height="8"/><rect x="1040" y="432" width="8" height="8"/><rect x="1040" y="464" width="8" height="8"/><rect x="1072" y="16" width="8" height="8"/><rect x="1072" y="48" width="8" height="8"/><rect x="1072" y="80" width="8" height="8"/><rect x="1072" y="112" width="8" height="8"/><rect x="1072" y="144" width="8" height="8"/><rect x="1072" y="176" width="8" height="8"/><rect x="1072" y="208" width="8" height="8"/><rect x="1072" y="240" width="8" height="8"/><rect x="1072" y="272" width="8" height="8"/><rect x="1072" y="304" width="8" height="8"/><rect x="1072" y="336" width="8" height="8"/><rect x="1072" y="368" width="8" height="8"/><rect x="1072" y="400" width="8" height="8"/><rect x="1072" y="432" width="8" height="8"/><rect x="1072" y="464" width="8" height="8"/><rect x="1104" y="16" width="8" height="8"/><rect x="1104" y="48" width="8" height="8"/><rect x="1104" y="80" width="8" height="8"/><rect x="1104" y="112" width="8" height="8"/><rect x="1104" y="144" width="8" height="8"/><rect x="1104" y="176" width="8" height="8"/><rect x="1104" y="208" width="8" height="8"/><rect x="1104" y="240" width="8" height="8"/><rect x="1104" y="272" width="8" height="8"/><rect x="1104" y="304" width="8" height="8"/><rect x="1104" y="336" width="8" height="8"/><rect x="1104" y="368" width="8" height="8"/><rect x="1104" y="400" width="8" height="8"/><rect x="1104" y="432" width="8" height="8"/><rect x="1104" y="464" width="8" height="8"/><rect x="1136" y="16" width="8" height="8"/><rect x="1136" y="48" width="8" height="8"/><rect x="1136" y="80" width="8" height="8"/><rect x="1136" y="112" width="8" height="8"/><rect x="1136" y="144" width="8" height="8"/><rect x="1136" y="176" width="8" height="8"/><rect x="1136" y="208" width="8" height="8"/><rect x="1136" y="240" width="8" height="8"/><rect x="1136" y="272" width="8" height="8"/><rect x="1136" y="304" width="8" height="8"/><rect x="1136" y="336" width="8" height="8"/><rect x="1136" y="368" width="8" height="8"/><rect x="1136" y="400" width="8" height="8"/><rect x="1136" y="432" width="8" height="8"/><rect x="1136" y="464" width="8" height="8"/><rect x="1168" y="16" width="8" height="8"/><rect x="1168" y="48" width="8" height="8"/><rect x="1168" y="80" width="8" height="8"/><rect x="1168" y="112" width="8" height="8"/><rect x="1168" y="144" width="8" height="8"/><rect x="1168" y="176" width="8" height="8"/><rect x="1168" y="208" width="8" height="8"/><rect x="1168" y="240" width="8" height="8"/><rect x="1168" y="272" width="8" height="8"/><rect x="1168" y="304" width="8" height="8"/><rect x="1168" y="336" width="8" height="8"/><rect x="1168" y="368" width="8" height="8"/><rect x="1168" y="400" width="8" height="8"/><rect x="1168" y="432" width="8" height="8"/><rect x="1168" y="464" width="8" height="8"/>
</g>
<g transform="rotate(-1 475 280)">
  <rect x="390" y="160" width="170" height="240" fill="#e8e8ee"/>
  <rect x="398" y="168" width="154" height="224" fill="none" stroke="#101014" stroke-width="4"/>
  <rect x="408" y="184" width="82" height="12" fill="#33333d"/>
<rect x="408" y="222" width="134" height="8" rx="0" fill="#55555f" opacity="1"/>
<rect x="408" y="244" width="125" height="8" rx="0" fill="#55555f" opacity="1"/>
<rect x="408" y="266" width="130" height="8" rx="0" fill="#55555f" opacity="1"/>
<rect x="408" y="288" width="112" height="8" rx="0" fill="#55555f" opacity="1"/>
<rect x="408" y="310" width="96" height="8" rx="0" fill="#55555f" opacity="1"/>
  <rect x="408" y="336" width="122" height="8" fill="#e05252"/>
</g>
<circle cx="478" cy="340" r="48" fill="none" stroke="#e8e8ee" stroke-width="6"/>
<circle cx="478" cy="340" r="38" fill="none" stroke="#8b8b96" stroke-width="4"/>
<rect x="452" y="334" width="52" height="8" fill="#e05252"/>
<rect x="514" y="376" width="14" height="66" fill="#e8e8ee"/>
<g font-size="22" font-weight="bold" fill="#ffffff">
  <rect x="635" y="140" width="190" height="60" fill="#2f6fbf"/>
  <rect x="643" y="148" width="174" height="44" fill="none" stroke="#ffffff" stroke-width="3"/>
<path d="M 664.9 170.0 L 670.0 175.8 L 679.1 164.2" fill="none" stroke="#ffffff" stroke-width="5" stroke-linecap="round" stroke-linejoin="round"/>
  <text x="698" y="181">逻辑完备</text>
  <rect x="635" y="240" width="190" height="60" fill="#2e8f6f"/>
  <rect x="643" y="248" width="174" height="44" fill="none" stroke="#ffffff" stroke-width="3"/>
<path d="M 664.9 270.0 L 670.0 275.9 L 679.1 264.1" fill="none" stroke="#ffffff" stroke-width="5" stroke-linecap="round" stroke-linejoin="round"/>
  <text x="698" y="281">可以复现</text>
  <rect x="635" y="340" width="190" height="60" fill="#b0742a"/>
  <rect x="643" y="348" width="174" height="44" fill="none" stroke="#ffffff" stroke-width="3"/>
<path d="M 664.9 370.0 L 670.0 375.9 L 679.1 364.1" fill="none" stroke="#ffffff" stroke-width="5" stroke-linecap="round" stroke-linejoin="round"/>
  <text x="698" y="381">数据真实</text>
</g>
<rect x="655" y="45" width="90" height="90" fill="#c62828"/>
<rect x="663" y="53" width="74" height="74" fill="none" stroke="#ffffff" stroke-width="4"/>
<path d="M 685.7 90.0 L 696.1 101.7 L 714.3 78.3" fill="none" stroke="#ffffff" stroke-width="9" stroke-linecap="round" stroke-linejoin="round"/>
<text x="392" y="108" font-size="46" font-weight="bold" fill="#f5d442" transform="rotate(-6 392 105)">？</text>
<g fill="#f5d442">
  <rect x="80" y="90" width="8" height="8"/><rect x="76" y="98" width="16" height="8"/><rect x="80" y="106" width="8" height="8"/>
  <rect x="1104" y="380" width="8" height="8"/><rect x="1100" y="388" width="16" height="8"/><rect x="1104" y="396" width="8" height="8"/>
</g>

</svg>
