<svg xmlns="http://www.w3.org/2000/svg" viewBox="0 0 1200 500" width="1200" height="500" font-family="'Noto Sans SC','PingFang SC','Hiragino Sans GB','Microsoft YaHei',sans-serif">

<rect width="1200" height="500" fill="#f2f4f7"/>
<circle cx="150" cy="120" r="70" fill="#ffe8a3" opacity="0.5"/>
<circle cx="1060" cy="120" r="55" fill="#b8e0f7" opacity="0.6"/>
<circle cx="150" cy="420" r="45" fill="#ffd6d6" opacity="0.6"/>
<circle cx="1070" cy="420" r="65" fill="#d3f0d8" opacity="0.6"/>
<rect x="60" y="230" width="120" height="14" rx="7" fill="#cbd5e1"/>
<rect x="1020" y="230" width="120" height="14" rx="7" fill="#cbd5e1"/>
<rect x="60" y="260" width="90" height="14" rx="7" fill="#e2e8f0"/>
<rect x="1050" y="260" width="90" height="14" rx="7" fill="#e2e8f0"/>
<g transform="rotate(-2 475 280)">
  <rect x="390" y="160" width="170" height="240" rx="12" fill="#ffffff" stroke="#e2e8f0" stroke-width="2"/>
  <rect x="408" y="184" width="82" height="12" rx="6" fill="#334155"/>
<rect x="408" y="222" width="134" height="8" rx="4" fill="#94a3b8" opacity="0.5"/>
<rect x="408" y="244" width="125" height="8" rx="4" fill="#94a3b8" opacity="0.5"/>
<rect x="408" y="266" width="130" height="8" rx="4" fill="#94a3b8" opacity="0.5"/>
<rect x="408" y="288" width="112" height="8" rx="4" fill="#94a3b8" opacity="0.5"/>
<rect x="408" y="310" width="96" height="8" rx="4" fill="#94a3b8" opacity="0.5"/>
  <rect x="408" y="336" width="122" height="8" rx="4" fill="#f59e0b"/>
</g>
<circle cx="478" cy="340" r="48" fill="#ffffff" stroke="#cbd5e1" stroke-width="5"/>
<circle cx="478" cy="340" r="40" fill="none" stroke="#e2e8f0" stroke-width="2"/>
<rect x="452" y="334" width="52" height="8" rx="4" fill="#f59e0b"/>
<line x1="522" y1="382" x2="584" y2="444" stroke="#94a3b8" stroke-width="16" stroke-linecap="round"/>
<g font-size="25" font-weight="bold" fill="#ffffff">
  <rect x="635" y="140" width="190" height="60" rx="14" fill="#4a90d9"/>
  <circle cx="672" cy="170" r="13" fill="#ffffff" opacity="0.3"/>
<path d="M 664.9 170.0 L 670.0 175.8 L 679.1 164.2" fill="none" stroke="#ffffff" stroke-width="4" stroke-linecap="round" stroke-linejoin="round"/>
  <text x="698" y="180">逻辑完备</text>
  <rect x="635" y="240" width="190" height="60" rx="14" fill="#3fb8af"/>
  <circle cx="672" cy="270" r="13" fill="#ffffff" opacity="0.3"/>
<path d="M 664.9 270.0 L 670.0 275.9 L 679.1 264.1" fill="none" stroke="#ffffff" stroke-width="4" stroke-linecap="round" stroke-linejoin="round"/>
  <text x="698" y="280">可以复现</text>
  <rect x="635" y="340" width="190" height="60" rx="14" fill="#f5a623"/>
  <circle cx="672" cy="370" r="13" fill="#ffffff" opacity="0.3"/>
<path d="M 664.9 370.0 L 670.0 375.9 L 679.1 364.1" fill="none" stroke="#ffffff" stroke-width="4" stroke-linecap="round" stroke-linejoin="round"/>
  <text x="698" y="380">数据真实</text>
</g>
<rect x="655" y="45" width="90" height="90" rx="18" fill="#e64545"/>
<path d="M 683.5 90.0 L 695.5 103.5 L 716.5 76.5" fill="none" stroke="#ffffff" stroke-width="9" stroke-linecap="round" stroke-linejoin="round"/>
<text x="392" y="108" font-size="52" font-weight="bold" fill="#64748b" transform="rotate(-8 392 105)">？</text>

</svg>
